PathFileType	4	(X/Y/Z)	C:/Users/opensim2020/Desktop/walking_exp_matlab/subject06_walking16_straight_03.trc	
DataRate	CameraRate	NumFrames	NumMarkers	Units	OrigDataRate	OrigDataStartFrame	OrigNumFrames	
100.00	100.00	6	51	mm	100.00	3035	283	
Frame#	Time	LFHD			RFHD			LBHD			RBHD			C7			T10			CLAV			STRN			RBAK			LSHO			LUPA			LELB			LFRM			LWRA			LWRB			LFIN			RSHO			RUPA			RELB			RFRM			RWRA			RWRB			RFIN			LASI			RASI			LPSI			RPSI			LTHI			LKNE			LTIB			LANK			LHEE			LTOE			RTHI			RKNE			RTIB			RANK			RHEE			RTOE			*39			*40			*41			*42			*43			*44			*45			*46			*47			*48			*49			*50			
		X1	Y1	Z1	X2	Y2	Z2	X3	Y3	Z3	X4	Y4	Z4	X5	Y5	Z5	X6	Y6	Z6	X7	Y7	Z7	X8	Y8	Z8	X9	Y9	Z9	X10	Y10	Z10	X11	Y11	Z11	X12	Y12	Z12	X13	Y13	Z13	X14	Y14	Z14	X15	Y15	Z15	X16	Y16	Z16	X17	Y17	Z17	X18	Y18	Z18	X19	Y19	Z19	X20	Y20	Z20	X21	Y21	Z21	X22	Y22	Z22	X23	Y23	Z23	X24	Y24	Z24	X25	Y25	Z25	X26	Y26	Z26	X27	Y27	Z27	X28	Y28	Z28	X29	Y29	Z29	X30	Y30	Z30	X31	Y31	Z31	X32	Y32	Z32	X33	Y33	Z33	X34	Y34	Z34	X35	Y35	Z35	X36	Y36	Z36	X37	Y37	Z37	X38	Y38	Z38	X39	Y39	Z39	X40	Y40	Z40	X41	Y41	Z41	X42	Y42	Z42	X43	Y43	Z43	X44	Y44	Z44	X45	Y45	Z45	X46	Y46	Z46	X47	Y47	Z47	X48	Y48	Z48	X49	Y49	Z49	X50	Y50	Z50	X51	Y51	Z51	

213	2.120	-1084.49316	728.55243	1670.71252	-954.85059	712.45721	1653.70813	-1104.61304	597.61359	1616.26062	-976.58771	582.88000	1604.06982	-1050.21130	589.57458	1455.68237	-1043.52551	555.58142	1126.92493	-1043.33228	700.28601	1378.14026	-1050.69116	739.54803	1202.52039	-976.31970	512.99890	1284.80676	-1207.16357	653.81506	1412.11646	-1285.98572	667.80347	1211.99744	-1302.61951	674.01288	1100.20325	-1325.95752	725.91187	959.30603	-1283.19800	804.88501	857.94263	-1323.30554	749.19330	842.05438	-1326.60254	806.95801	772.96887	-884.37579	646.31104	1406.59766	-807.17242	607.90216	1203.26526	-798.60681	620.45538	1081.60059	-782.71497	633.64514	961.63818	-810.10950	693.15729	820.56879	-774.48938	635.85260	823.81604	-771.54352	670.50525	746.13324	-1147.52747	737.09247	967.77661	-926.49756	731.33282	973.15521	-1121.95496	577.06482	993.68250	-953.26257	579.57349	993.30188	-1198.33179	680.02411	650.82947	-1171.37769	685.01471	487.84140	-1158.28113	637.25586	234.52019	-1110.24341	618.78595	65.05639	-1066.43140	575.32184	53.06601	-1102.53149	763.23285	35.49476	-866.94495	741.34283	641.92603	-885.92603	781.49292	522.08923	-889.77057	631.94714	313.66638	-931.21509	513.84851	170.03448	-977.94458	468.43341	168.23238	-924.89850	619.67413	59.96778	-1037.07507	621.55798	1705.99976																																	 
214	2.130	-1084.76257	737.32703	1670.48071	-955.18005	720.94824	1653.46533	-1105.11621	606.15045	1616.60437	-977.23389	591.21912	1604.35486	-1050.89856	597.55121	1455.69812	-1044.55176	563.49152	1126.92639	-1043.81787	708.16870	1378.15552	-1051.40027	747.34607	1202.52905	-977.41675	520.82361	1284.84070	-1207.76770	661.93976	1412.43164	-1286.68909	677.79205	1212.47205	-1303.68005	685.79797	1100.81665	-1327.28027	740.73010	961.16779	-1284.24304	821.76788	861.43951	-1324.15466	766.34534	844.24762	-1327.57996	825.77374	776.47717	-884.99707	653.94495	1406.52283	-807.69757	614.62408	1203.33533	-799.81342	625.73993	1081.53113	-784.00726	637.64563	961.43542	-811.98553	694.53723	819.64453	-775.90955	637.94159	823.52448	-773.13757	671.34509	745.20099	-1148.26990	744.25000	967.34436	-927.48053	739.20929	973.34277	-1122.87000	584.71100	993.73486	-954.12750	587.50525	993.59674	-1198.86023	685.06726	650.51648	-1172.30432	688.01129	487.52396	-1158.85425	638.26544	234.33852	-1110.20679	618.93811	65.13135	-1066.34766	575.48041	53.26723	-1102.65466	763.36096	35.31285	-867.76495	752.04321	643.18304	-887.42365	793.36853	523.93420	-890.59662	650.37054	310.03625	-931.89056	537.94708	161.86407	-978.67914	492.48059	157.86142	-924.93311	648.91595	57.23063	-1037.45935	630.43951	1706.20081																																	 
215	2.140	-1085.00671	746.00494	1670.26892	-955.43713	729.42572	1653.16968	-1105.59998	614.68268	1616.83899	-977.74225	599.49579	1604.53137	-1051.56836	605.54407	1455.65283	-1045.46289	571.33038	1126.82935	-1044.33008	716.04822	1378.06714	-1052.13416	755.19110	1202.45459	-978.54767	528.66266	1284.55176	-1208.29565	669.95062	1412.52002	-1287.65759	687.77563	1213.01794	-1304.64087	697.40729	1101.36365	-1328.01306	754.93079	962.69391	-1285.16663	838.51917	865.06677	-1324.79358	783.31396	846.53656	-1328.06128	844.04089	779.95496	-885.56030	661.62360	1406.33130	-808.75494	620.63605	1203.32385	-800.91302	631.01959	1081.35669	-785.18420	641.66504	961.17975	-813.24237	697.05804	818.78876	-777.26569	640.50958	823.15375	-774.68054	672.76025	744.37555	-1149.44006	751.84998	967.02716	-928.49902	747.74707	973.51776	-1123.72131	592.40887	993.66351	-954.88641	595.39691	993.79614	-1199.51184	689.78418	650.16821	-1172.99854	690.88489	487.05042	-1159.37134	639.25751	234.24742	-1110.20984	619.03351	65.17356	-1066.41003	575.58521	53.53630	-1102.80603	763.43848	35.14214	-868.45935	762.45056	644.41357	-888.72156	804.80988	525.58453	-891.35010	668.45862	306.30801	-932.61987	562.50464	153.47128	-979.31964	517.53387	147.01639	-924.52997	678.32910	54.47419	-1037.80811	639.13293	1706.28430																																	 
216	2.150	-1085.22778	754.66052	1669.94958	-955.65717	737.82343	1652.82983	-1106.02551	623.22260	1616.97754	-978.14966	607.73889	1604.58020	-1052.05640	613.58142	1455.53748	-1046.20068	579.18805	1126.70728	-1044.74854	723.94482	1377.87903	-1052.79700	763.00024	1202.27002	-979.50079	536.47162	1284.33008	-1208.83691	678.11554	1412.61243	-1288.18848	697.39984	1213.23035	-1305.53894	708.81287	1101.83252	-1328.95410	769.24609	964.40039	-1285.89282	855.04492	868.77069	-1325.22620	800.07013	848.82587	-1328.44800	862.41870	783.54034	-886.04028	669.23877	1406.01477	-809.22009	627.41272	1203.13000	-801.82440	636.48010	1081.15515	-786.19824	645.85278	960.85352	-814.48883	699.73822	817.87878	-778.49744	643.31384	822.80206	-776.11035	674.69604	743.56030	-1150.19202	758.95276	966.38348	-929.39307	755.75452	973.47949	-1124.36157	599.83179	993.52026	-955.59174	603.48236	993.86218	-1199.98621	694.65002	649.78687	-1173.47229	693.72833	486.50247	-1159.82837	640.44922	234.28094	-1110.25452	619.18561	65.21645	-1066.58154	576.03662	53.76011	-1102.96399	763.51135	35.00520	-868.99652	772.69763	645.47833	-889.79486	815.76477	527.01886	-892.25513	686.30847	302.57556	-933.44531	587.39148	145.11028	-980.46490	542.93744	136.00880	-924.29761	707.85504	51.88869	-1038.14661	647.81519	1706.26404																																	 
217	2.160	-1085.34277	763.24573	1669.62842	-955.84711	746.13544	1652.42810	-1106.41479	631.66278	1617.01050	-978.59430	615.98761	1604.56409	-1052.63293	621.70746	1455.41309	-1046.97192	587.10413	1126.54736	-1045.19312	731.86414	1377.66028	-1053.53040	770.80322	1202.07263	-980.41797	544.25916	1284.07422	-1209.30127	686.25592	1412.60156	-1288.84167	707.00763	1213.47498	-1306.34863	719.99084	1102.21411	-1329.56189	783.19977	965.97351	-1286.40137	871.31989	872.53589	-1325.47144	816.67957	851.15491	-1328.52856	880.41882	787.29169	-886.49683	676.95197	1405.67200	-810.18091	633.27972	1202.86816	-802.74207	641.98132	1080.88513	-787.11182	650.10339	960.52570	-815.57837	702.73755	817.07751	-779.54620	646.36798	822.50134	-777.43188	676.99884	742.91400	-1151.48828	766.52704	965.89117	-930.43079	763.91559	973.43378	-1124.91821	607.28253	993.35474	-956.08392	611.54651	993.96246	-1200.41162	699.46338	649.43170	-1174.25916	696.75153	486.19073	-1160.12878	641.69196	234.14435	-1110.26453	619.37000	65.31628	-1066.59241	576.10321	54.01992	-1103.03882	763.56134	34.94744	-869.36713	782.69830	646.42780	-890.77948	826.18158	528.25366	-892.97772	704.06573	298.77505	-934.23999	612.85309	136.62863	-981.51422	569.19104	125.30799	-923.88696	737.78601	49.72449	-1038.38501	656.39282	1706.18567																																	 
218	2.170	-1085.44312	771.73657	1669.30554	-956.00256	754.41565	1652.02649	-1106.77344	640.07758	1616.97205	-978.95380	624.18152	1604.46741	-1053.05640	629.78735	1455.24060	-1047.68970	594.99579	1126.34558	-1045.61462	739.84497	1377.35840	-1054.18286	778.65558	1201.75012	-981.20703	552.07495	1283.91992	-1209.77405	694.53412	1412.52832	-1289.39795	716.56677	1213.59351	-1307.02405	730.96771	1102.49731	-1329.78284	796.79169	967.48859	-1286.73755	887.31287	876.31921	-1325.35278	833.06921	853.41461	-1328.05469	897.67694	790.77600	-886.85938	684.65436	1405.21106	-810.78802	639.73462	1202.59155	-803.52942	647.57507	1080.55615	-787.94855	654.77905	960.15747	-816.63245	706.08594	816.22821	-780.61151	649.75092	822.06348	-778.59442	679.95837	742.26343	-1152.32410	773.52252	965.24994	-931.43665	772.21893	973.32428	-1125.25525	614.56226	993.21600	-956.52246	619.99945	993.95154	-1200.79065	704.24695	649.03156	-1174.73071	699.79486	485.77393	-1160.21387	643.25366	234.17975	-1110.27429	619.54938	65.43443	-1066.55432	576.28705	54.20871	-1103.10986	763.59827	34.87731	-869.43091	792.61206	647.19781	-891.63440	836.10144	529.21442	-893.90948	721.56567	295.00433	-935.07770	638.67981	128.40839	-982.51733	596.11981	114.74868	-923.33960	767.53674	47.74315	-1038.62366	664.89020	1706.04590																																	 
